<svg width="120" height="54" viewBox="0 0 120 54" fill="none" xmlns="http://www.w3.org/2000/svg">
<g clip-path="url(#clip0_18_333)">
<path d="M5.51574 18.6369L3.50853 17.7921C2.85632 17.5256 2.15352 17.1571 2.15352 16.1989C2.15352 15.1329 3.08684 14.7531 3.96395 14.7531C4.84105 14.7531 5.57759 15.1273 6.30289 15.904C6.31976 15.9211 6.34224 15.9324 6.37036 15.9324C6.39285 15.9324 6.41534 15.9211 6.4322 15.8984L7.19124 14.9061C7.24184 14.8381 7.23622 14.7474 7.17999 14.685C6.29164 13.7608 5.23462 13.2959 4.04828 13.2959C3.12058 13.2959 2.2491 13.5624 1.59689 14.0443C0.854731 14.5943 0.46116 15.3767 0.46116 16.3123C0.46116 17.571 1.08525 18.5009 2.30532 19.0792C2.71576 19.2833 3.4523 19.5781 4.04828 19.8163L4.11013 19.8389C4.68924 20.0714 5.76313 20.5023 5.76313 21.5513C5.76313 22.6002 4.94225 23.3146 3.71656 23.3146C2.56958 23.3146 1.57441 22.5208 1.0234 21.7724C1.00654 21.7497 0.984048 21.7384 0.961558 21.7384C0.939068 21.7384 0.910956 21.7497 0.894088 21.7667L0.0450981 22.7476C-0.0111264 22.81 -0.0111264 22.9064 0.0450981 22.9687C0.551119 23.5584 1.67561 24.7888 3.576 24.7888C5.47639 24.7888 7.46111 23.6434 7.46111 21.4605C7.46111 20.2358 6.76955 19.2323 5.51574 18.6483V18.6369Z" fill="black"/>
<path d="M19.3582 14.8211C18.3236 13.8289 16.8955 13.2845 15.3437 13.2845C13.7919 13.2845 12.3638 13.8289 11.3293 14.8211C10.2273 15.8757 9.64258 17.3328 9.64258 19.0338C9.64258 20.7348 10.2273 22.1919 11.3293 23.2465C12.3638 24.2388 13.7919 24.7831 15.3437 24.7831C16.8955 24.7831 18.318 24.2388 19.3582 23.2465C20.4602 22.1919 21.0449 20.7348 21.0449 19.0338C21.0449 17.3328 20.4602 15.8757 19.3582 14.8211ZM19.3188 18.9998C19.3188 21.4775 17.6883 23.2125 15.3494 23.2125C14.2642 23.2125 13.2747 22.8156 12.555 22.0899C11.7847 21.3188 11.3799 20.2528 11.3799 18.9998C11.3799 16.522 13.0104 14.7871 15.3494 14.7871C17.6883 14.7871 19.3188 16.5164 19.3188 18.9998Z" fill="black"/>
<path d="M29.2256 23.1161H25.7285C25.6385 23.1161 25.5598 23.0424 25.5598 22.946V13.6134C25.5598 13.5227 25.4867 13.4433 25.3911 13.4433H24.0305C23.9405 13.4433 23.8618 13.517 23.8618 13.6134V24.4202C23.8618 24.5109 23.9349 24.5903 24.0305 24.5903H29.2256C29.3156 24.5903 29.3943 24.5166 29.3943 24.4202V23.2862C29.3943 23.1955 29.3212 23.1161 29.2256 23.1161Z" fill="black"/>
<path d="M33.313 13.4433H31.9524C31.8592 13.4433 31.7837 13.5195 31.7837 13.6134V24.4202C31.7837 24.5141 31.8592 24.5903 31.9524 24.5903H33.313C33.4062 24.5903 33.4817 24.5141 33.4817 24.4202V13.6134C33.4817 13.5195 33.4062 13.4433 33.313 13.4433Z" fill="black"/>
<path d="M44.4342 14.9345C43.3884 13.9763 41.9097 13.4433 40.2736 13.4433H37.0744C36.9845 13.4433 36.9058 13.517 36.9058 13.6134V24.4202C36.9058 24.5109 36.9789 24.5903 37.0744 24.5903H40.2736C41.9097 24.5903 43.3884 24.063 44.4342 23.0991C45.5362 22.0899 46.1153 20.6781 46.1153 19.0168C46.1153 17.3555 45.5362 15.9437 44.4342 14.9345ZM40.2736 23.0878H38.7724C38.6825 23.0878 38.6037 23.0141 38.6037 22.9177V15.0989C38.6037 15.0082 38.6768 14.9288 38.7724 14.9288H40.2736C42.7362 14.9288 44.3892 16.5731 44.3892 19.0111C44.3892 21.4492 42.7362 23.0821 40.2736 23.0821V23.0878Z" fill="black"/>
<path d="M57.1354 13.4433H55.7748C55.6848 13.4433 55.6061 13.517 55.6061 13.6134V19.8786C55.6061 20.7064 55.6061 21.642 55.1169 22.294C54.6446 22.9177 53.9643 23.2295 53.0872 23.2295C52.2101 23.2295 51.5017 22.9063 51.0575 22.294C50.5684 21.642 50.5684 20.7064 50.5684 19.8786V13.6134C50.5684 13.5227 50.4953 13.4433 50.3997 13.4433H49.0222C48.9322 13.4433 48.8535 13.517 48.8535 13.6134V20.0204C48.8535 21.4605 49.0053 22.5321 49.7587 23.4166C50.5234 24.3238 51.6423 24.7831 53.0872 24.7831C54.5322 24.7831 55.6342 24.3238 56.4157 23.4166C57.1523 22.5265 57.3041 21.4605 57.3041 20.0204V13.6134C57.3041 13.5227 57.231 13.4433 57.1354 13.4433Z" fill="black"/>
<path d="M65.4567 18.6369L63.4494 17.7921C62.7972 17.5256 62.0944 17.1571 62.0944 16.1989C62.0944 15.1329 63.0278 14.7531 63.9049 14.7531C64.782 14.7531 65.5185 15.1273 66.2438 15.904C66.2607 15.9211 66.2832 15.9324 66.3113 15.9324C66.3338 15.9324 66.3563 15.9211 66.3731 15.8984L67.1322 14.9061C67.1828 14.8381 67.1771 14.7474 67.1209 14.685C66.2326 13.7608 65.1755 13.2959 63.9892 13.2959C63.0615 13.2959 62.19 13.5624 61.5378 14.0443C60.7956 14.5943 60.4021 15.3767 60.4021 16.3123C60.4021 17.571 61.0262 18.5009 62.2462 19.0792C62.6567 19.2833 63.3932 19.5781 63.9892 19.8163L64.051 19.8389C64.6302 20.0714 65.704 20.5023 65.704 21.5513C65.704 22.6002 64.8832 23.3146 63.6575 23.3146C62.5105 23.3146 61.5153 22.5208 60.9643 21.7724C60.9475 21.7497 60.925 21.7384 60.9025 21.7384C60.88 21.7384 60.8519 21.7497 60.835 21.7667L59.986 22.7476C59.9298 22.81 59.9298 22.9064 59.986 22.9687C60.492 23.5584 61.6165 24.7888 63.5169 24.7888C65.4173 24.7888 67.402 23.6434 67.402 21.4605C67.402 20.2358 66.7105 19.2323 65.4567 18.6483V18.6369Z" fill="black"/>
<path d="M5.99907 39.0315H2.50191C2.41195 39.0315 2.33323 38.9578 2.33323 38.8614V29.5231C2.33323 29.4324 2.26014 29.353 2.16456 29.353H0.803927C0.713968 29.353 0.635254 29.4267 0.635254 29.5231V40.3356C0.635254 40.4263 0.708346 40.5057 0.803927 40.5057H5.99907C6.08903 40.5057 6.16775 40.432 6.16775 40.3356V39.2016C6.16775 39.1109 6.09466 39.0315 5.99907 39.0315Z" fill="black"/>
<path d="M13.4661 29.3757C13.4548 29.3417 13.4211 29.3246 13.3873 29.3246H12.0436C12.0098 29.3246 11.9817 29.3473 11.9649 29.3757L7.52875 40.3866C7.52875 40.3866 7.52313 40.4433 7.53437 40.466C7.55124 40.4887 7.57373 40.5057 7.60184 40.5057H9.15364C9.22111 40.5057 9.28295 40.466 9.31107 40.3979L10.3456 37.7501C10.3681 37.6877 10.4299 37.6424 10.503 37.6424H14.8323C14.8998 37.6424 14.9616 37.6821 14.9897 37.7501L16.0243 40.3979C16.0468 40.4603 16.1086 40.5057 16.1817 40.5057H17.8291C17.8291 40.5057 17.8853 40.4943 17.8966 40.466C17.9134 40.4433 17.9134 40.4149 17.9022 40.3866L13.4548 29.3757H13.4661ZM14.2195 36.1795H11.1327C11.0147 36.1795 10.936 36.0605 10.9753 35.9471L12.5159 31.9611C12.5721 31.8194 12.7745 31.8194 12.8251 31.9611L14.3657 35.9471C14.4106 36.0605 14.3263 36.1795 14.2082 36.1795H14.2195Z" fill="black"/>
<path d="M25.9197 34.711C25.7848 34.6657 25.7679 34.4842 25.886 34.4105C26.5888 33.9513 27.0442 33.1121 27.0442 32.1936C27.0442 31.173 26.6506 30.4189 25.841 29.8973C25.1607 29.4494 24.2948 29.3586 23.2097 29.3586H20.3591C20.2691 29.3586 20.1904 29.4324 20.1904 29.5287V40.3412C20.1904 40.4319 20.2635 40.5113 20.3591 40.5113H23.8113C25.1269 40.5113 25.9647 40.2902 26.6056 39.7799C27.4265 39.1279 27.8032 38.3454 27.8032 37.3135C27.8032 36.0775 27.1285 35.1589 25.9253 34.728L25.9197 34.711ZM21.8828 35.5785C21.8828 35.4878 21.9559 35.4084 22.0515 35.4084H23.4402C24.1261 35.4084 24.784 35.4368 25.3012 35.794C25.8297 36.1512 26.0546 36.5821 26.0546 37.2341C26.0546 37.8862 25.8241 38.3511 25.3012 38.7083C24.8008 39.0485 24.188 39.0768 23.4402 39.0768H22.0515C21.9615 39.0768 21.8828 39.0031 21.8828 38.9067V35.5785ZM24.6547 33.7471C24.3004 34.0136 23.7888 34.0647 23.0804 34.0647H22.0515C21.9615 34.0647 21.8828 33.9909 21.8828 33.8946V30.9179C21.8828 30.8271 21.9559 30.7478 22.0515 30.7478H23.2041C24.6659 30.7478 25.3462 31.2637 25.3462 32.3637C25.3462 33.1234 24.9976 33.4863 24.6547 33.7415V33.7471Z" fill="black"/>
<path d="M35.2081 34.5466L33.2009 33.7018C32.5487 33.4353 31.8459 33.0668 31.8459 32.1086C31.8459 31.0426 32.7792 30.6627 33.6563 30.6627C34.5334 30.6627 35.27 31.0369 35.9953 31.8137C36.0121 31.8307 36.0346 31.8421 36.0627 31.8421C36.0852 31.8421 36.1077 31.8307 36.1246 31.808L36.8836 30.8158C36.9342 30.7478 36.9286 30.6571 36.8724 30.5947C35.984 29.6705 34.927 29.2056 33.7407 29.2056C32.813 29.2056 31.9415 29.4721 31.2893 29.954C30.5471 30.504 30.1535 31.2864 30.1535 32.2219C30.1535 33.4807 30.7776 34.4105 31.9977 34.9889C32.4025 35.193 33.1447 35.4878 33.7407 35.7259L33.8025 35.7486C34.3816 35.9811 35.4555 36.412 35.4555 37.4609C35.4555 38.5099 34.6346 39.2243 33.4089 39.2243C32.262 39.2243 31.2668 38.4305 30.7158 37.682C30.6989 37.6594 30.6764 37.648 30.6539 37.648C30.6258 37.648 30.6033 37.6594 30.5865 37.6764L29.7375 38.6573C29.6813 38.7196 29.6813 38.816 29.7375 38.8784C30.2435 39.4681 31.368 40.6984 33.2684 40.6984C35.1688 40.6984 37.1535 39.5531 37.1535 37.3702C37.1535 36.1455 36.4619 35.1419 35.2081 34.5579V34.5466Z" fill="black"/>
<path d="M105.027 25.4238L100.895 22.5491L105.022 19.6802C105.533 19.3286 105.837 18.739 105.837 18.0983C105.837 17.4632 105.533 16.8736 105.027 16.5164L94.9014 9.46871C93.8893 8.76564 92.5737 8.76564 91.5617 9.46871L81.43 16.505C80.9184 16.8566 80.6147 17.4462 80.6147 18.0813C80.6147 18.1323 80.6147 18.189 80.6204 18.257C80.6204 18.2854 80.6204 18.3137 80.6204 18.3364V26.983C80.6204 27.618 80.9184 28.2077 81.43 28.5649L85.5625 31.4395L81.4356 34.3085C80.924 34.66 80.6204 35.2497 80.6204 35.8904C80.6204 36.5254 80.924 37.1151 81.43 37.4723L91.556 44.5199C92.0564 44.8658 92.6299 45.0472 93.2259 45.0472C93.8219 45.0472 94.3954 44.8658 94.8958 44.5199L105.027 37.4836C105.539 37.1264 105.843 36.5367 105.843 35.9017C105.843 35.862 105.843 35.8223 105.843 35.7883V27.2608C105.843 27.2325 105.843 27.1984 105.843 27.1588C105.843 27.1021 105.848 27.051 105.848 27.0057C105.848 26.3706 105.545 25.781 105.039 25.4238H105.027ZM82.0934 24.9475V20.1394L85.5569 22.5435L82.0934 24.9475ZM92.3769 25.4464L88.2051 22.5435L92.3825 19.6405C92.6355 19.4647 92.9279 19.374 93.2259 19.374C93.5239 19.374 93.8163 19.4647 94.0693 19.6405L98.2411 22.5435L94.0637 25.4464C93.552 25.8036 92.8886 25.8036 92.3769 25.4464ZM92.3825 28.5422C92.6355 28.3664 92.9279 28.2757 93.2259 28.2757C93.5239 28.2757 93.8163 28.3664 94.0693 28.5422L98.2411 31.4452L94.0637 34.3482C93.552 34.7054 92.8886 34.7054 92.3769 34.3482L88.2051 31.4452L92.3825 28.5422ZM82.0878 26.966C82.0878 26.8979 82.1216 26.7675 82.2453 26.6825L86.8725 23.4677L91.5448 26.7165C91.7022 26.8242 91.8709 26.9206 92.0452 27C91.8709 27.0737 91.7078 27.1701 91.5504 27.2778L86.8725 30.5267L82.2396 27.3062C82.1047 27.2155 82.0822 27.0794 82.0822 27.0113C82.0822 27.0113 82.0822 27 82.0822 26.9943V26.9716L82.0878 26.966ZM93.2259 17.8431C92.6468 17.8431 92.0621 18.0189 91.556 18.3704L86.8782 21.6193L82.2453 18.3988C82.0991 18.2967 82.0878 18.1493 82.0878 18.0869C82.0878 18.0246 82.1047 17.8771 82.2453 17.7751L92.3769 10.7388C92.6299 10.563 92.9223 10.4723 93.2203 10.4723C93.5183 10.4723 93.8106 10.563 94.0637 10.7388L104.19 17.7864C104.336 17.8885 104.347 18.0359 104.347 18.0983C104.347 18.1606 104.33 18.3081 104.19 18.4101L99.5624 21.6249L94.8902 18.3761C94.3841 18.0246 93.7994 17.8488 93.2203 17.8488L93.2259 17.8431ZM82.2509 35.5785L86.8782 32.3637L91.5504 35.6126C92.0508 35.9584 92.6243 36.1399 93.2203 36.1399C93.8163 36.1399 94.3898 35.9584 94.8902 35.6126L99.568 32.3637L104.201 35.5842C104.313 35.6579 104.347 35.7656 104.358 35.845V35.896C104.358 35.896 104.358 35.9187 104.358 35.9301C104.353 36.0151 104.319 36.1228 104.201 36.2079L94.0693 43.2442C93.5576 43.6014 92.8942 43.6014 92.3825 43.2442L82.2565 36.1966C82.1103 36.0945 82.0991 35.9471 82.0991 35.8847C82.0991 35.8223 82.1159 35.6749 82.2565 35.5729L82.2509 35.5785ZM104.201 27.3062L99.5737 30.521L94.9014 27.2721C94.744 27.1644 94.5753 27.068 94.401 26.9887C94.5753 26.9149 94.7383 26.8186 94.8958 26.7108L99.5737 23.462L104.207 26.6825C104.353 26.7845 104.364 26.932 104.364 26.9943C104.364 27.0567 104.347 27.2041 104.207 27.3062H104.201ZM100.901 31.4452L104.364 29.0412V33.8549L100.901 31.4452Z" fill="black"/>
<path d="M93.2261 0V0.0340193C107.389 0.737085 118.662 12.5418 118.662 27C118.662 41.4582 107.389 53.2629 93.2261 53.966V54C108.013 54 120 41.9118 120 27C120 12.0882 108.013 0 93.2261 0Z" fill="black"/>
</g>
<defs>
<clipPath id="clip0_18_333">
<rect width="120" height="54" fill="white"/>
</clipPath>
</defs>
</svg>
